<?xml version="1.0" standalone="no"?>
<!DOCTYPE svg PUBLIC "-//W3C//DTD SVG 20010904//EN"
 "http://www.w3.org/TR/2001/REC-SVG-20010904/DTD/svg10.dtd">
<svg version="1.0" xmlns="http://www.w3.org/2000/svg"
 width="500.000000pt" height="500.000000pt" viewBox="0 0 500.000000 500.000000"
 preserveAspectRatio="xMidYMid meet">

<g transform="translate(0.000000,500.000000) scale(0.100000,-0.100000)"
fill="#000000" stroke="none">
<path d="M2382 3330 c-62 -21 -116 -40 -119 -43 -3 -3 16 -31 42 -62 l47 -55
72 -2 c39 -1 94 -3 121 -4 86 -1 93 -3 124 -34 21 -22 39 -59 60 -123 38 -119
51 -128 176 -126 105 2 145 13 145 40 0 20 -8 20 -72 2 -30 -8 -20 17 27 69
48 53 105 133 105 147 0 5 -6 14 -14 20 -11 10 -16 8 -21 -10 -7 -20 -9 -19
-49 19 -22 22 -59 45 -81 52 -22 6 -64 21 -93 32 l-54 21 -63 -63 c-58 -57
-85 -69 -85 -37 0 7 20 35 45 64 l45 51 -28 10 c-49 18 -211 72 -214 71 -2 0
-54 -18 -116 -39z"/>
<path d="M2980 3295 c0 -9 133 -44 143 -38 5 3 7 1 4 -4 -6 -9 36 -29 100 -48
7 -3 10 -11 6 -21 -5 -13 -3 -15 8 -9 12 8 12 6 0 -8 -7 -9 -10 -17 -6 -17 4
0 2 -7 -5 -15 -10 -12 -10 -15 3 -15 8 0 24 12 35 27 18 25 26 27 83 28 85 0
86 18 2 45 -37 11 -76 25 -86 31 -45 24 -113 40 -196 43 -50 3 -91 3 -91 1z"/>
<path d="M2090 3234 c-73 -27 -104 -44 -132 -74 -21 -22 -38 -43 -38 -48 0 -5
27 -44 60 -87 33 -43 60 -82 60 -86 0 -13 -54 -11 -68 3 -9 9 -14 6 -20 -13
-9 -21 -6 -25 24 -36 19 -7 69 -13 112 -14 89 -3 134 15 150 58 6 15 24 64 41
108 17 44 31 86 31 93 0 14 -108 133 -119 131 -3 0 -49 -16 -101 -35z"/>
<path d="M1610 3205 c-150 -52 -165 -60 -168 -94 -3 -29 6 -40 22 -24 16 16
237 92 252 86 8 -3 11 2 7 16 -3 12 -13 21 -23 21 -10 0 -20 4 -22 9 -1 5 -32
-1 -68 -14z"/>
<path d="M3464 3148 c8 -20 26 -39 45 -47 l32 -15 -7 -97 -7 -98 27 -7 c15 -3
29 -4 31 -2 3 3 8 58 11 124 l7 119 -54 22 c-30 12 -64 24 -76 28 -22 6 -22 5
-9 -27z"/>
<path d="M3200 3140 c-12 -23 2 -27 19 -6 8 9 8 16 2 20 -6 4 -15 -3 -21 -14z"/>
<path d="M3393 3152 c-8 -5 1 -11 23 -18 30 -10 35 -9 32 5 -4 18 -36 26 -55
13z"/>
<path d="M1400 3100 c0 -19 3 -21 12 -12 9 9 9 15 0 24 -9 9 -12 7 -12 -12z"/>
<path d="M1550 3035 c-8 -10 -10 -34 -5 -80 7 -60 9 -65 31 -65 18 0 25 7 29
28 3 15 13 40 21 57 15 28 15 30 -11 52 -30 27 -48 29 -65 8z"/>
<path d="M3380 3023 c-28 -23 -30 -28 -16 -38 8 -6 18 -30 22 -53 5 -35 10
-42 30 -42 28 0 33 7 40 63 13 95 -16 121 -76 70z"/>
<path d="M1412 3028 c-5 -7 -7 -39 -4 -71 4 -51 8 -59 33 -73 l29 -15 0 64 c0
81 -30 130 -58 95z"/>
<path d="M1730 2930 c-11 -11 -20 -27 -20 -35 0 -13 7 -15 38 -9 20 4 40 9 45
11 13 8 7 41 -9 47 -25 9 -33 7 -54 -14z"/>
<path d="M3230 2931 c0 -5 -8 -11 -17 -13 -15 -3 -15 -5 -1 -18 16 -17 75 -20
70 -4 -10 37 -16 44 -33 44 -10 0 -19 -4 -19 -9z"/>
<path d="M765 2791 c3 -6 -2 -11 -12 -11 -16 -1 -16 -2 -2 -10 8 -5 28 -11 43
-14 24 -4 27 -2 24 17 -2 16 -11 23 -32 25 -18 2 -26 0 -21 -7z"/>
<path d="M1066 2785 c-3 -9 0 -15 9 -15 8 0 15 7 15 15 0 8 -4 15 -9 15 -5 0
-11 -7 -15 -15z"/>
<path d="M3770 2790 c-13 -8 -13 -10 2 -10 9 0 20 5 23 10 8 13 -5 13 -25 0z"/>
<path d="M3848 2793 c6 -2 9 -10 6 -15 -4 -7 -2 -8 4 -4 18 11 14 26 -5 25
-11 0 -13 -3 -5 -6z"/>
<path d="M4070 2789 c0 -5 5 -7 10 -4 6 3 10 8 10 11 0 2 -4 4 -10 4 -5 0 -10
-5 -10 -11z"/>
<path d="M4137 2785 c-4 -9 -3 -14 2 -11 4 3 16 -3 26 -14 21 -23 46 -21 76 6
22 19 22 19 10 -3 -16 -30 -14 -33 14 -33 33 0 42 25 20 50 -20 22 -108 29
-121 9 -5 -8 -9 -8 -14 1 -5 8 -9 7 -13 -5z m60 -1 c-3 -3 -12 -4 -19 -1 -8 3
-5 6 6 6 11 1 17 -2 13 -5z"/>
<path d="M2033 2533 c-28 -5 -30 -31 -5 -64 10 -13 24 -37 31 -54 8 -18 15
-25 18 -17 7 18 -7 142 -15 141 -4 -1 -17 -4 -29 -6z"/>
<path d="M2141 2531 c-16 -10 -10 -41 46 -223 l27 -88 38 0 38 0 0 155 c0 85
-3 155 -7 156 -63 7 -63 6 -63 -33 0 -56 -30 -46 -45 15 -8 29 -12 32 -34 18z"/>
<path d="M2363 2393 c3 -178 -1 -174 142 -170 l100 2 3 65 c1 36 5 104 8 152
l6 86 -26 -1 c-14 -1 -26 -4 -26 -7 0 -3 -11 -5 -24 -5 -13 0 -22 3 -19 8 2 4
-3 7 -11 7 -10 0 -16 -9 -16 -24 0 -19 6 -25 28 -28 l27 -3 -4 -85 c-2 -47 -5
-87 -7 -89 -4 -4 -106 -3 -110 2 -2 1 -4 53 -5 115 -1 62 -4 112 -8 113 -3 0
-18 2 -33 3 l-27 2 2 -143z"/>
<path d="M1738 2524 c-13 -4 -17 -26 -23 -127 -4 -67 -5 -138 -3 -157 l3 -35
94 -3 c103 -3 124 5 119 47 -3 25 -6 26 -70 29 l-68 3 0 98 c0 98 0 99 26 105
42 11 27 41 -21 43 -22 0 -47 -1 -57 -3z"/>
<path d="M1867 2510 c3 -11 12 -20 19 -20 8 0 14 9 14 20 0 13 -7 20 -19 20
-14 0 -18 -5 -14 -20z"/>
<path d="M2697 2517 c-9 -24 -7 -202 2 -236 16 -52 34 -60 142 -61 71 0 100 4
108 14 19 23 24 78 16 191 l-7 105 -29 0 -28 0 -3 -117 -3 -118 -55 -3 c-74
-4 -80 5 -80 135 l0 103 -29 0 c-16 0 -31 -6 -34 -13z"/>
<path d="M3040 2465 c0 -36 3 -65 6 -65 19 0 46 26 62 59 23 47 11 71 -37 71
l-31 0 0 -65z"/>
<path d="M3140 2515 c0 -8 2 -15 4 -15 2 0 6 7 10 15 3 8 1 15 -4 15 -6 0 -10
-7 -10 -15z"/>
<path d="M1576 2474 c-3 -26 -6 -80 -6 -121 0 -70 -1 -74 -26 -83 -14 -6 -40
-10 -58 -10 -40 0 -63 -36 -42 -66 11 -15 23 -16 77 -10 95 9 109 28 121 153
4 54 6 117 3 141 -6 38 -9 42 -34 42 -26 0 -29 -4 -35 -46z"/>
<path d="M3180 2504 c0 -8 9 -14 20 -14 11 0 20 4 20 9 0 5 -9 11 -20 14 -13
3 -20 0 -20 -9z"/>
<path d="M1319 2506 c-2 -2 -20 -7 -39 -9 -19 -3 -37 -6 -40 -6 -2 -1 6 -8 18
-17 32 -22 92 -11 92 16 0 18 -19 27 -31 16z"/>
<path d="M3375 2485 c22 -14 50 -25 62 -25 12 0 39 -12 60 -26 27 -18 39 -22
41 -12 1 7 16 21 32 30 43 25 39 48 -7 48 -21 0 -81 3 -133 5 l-95 5 40 -25z"/>
<path d="M1039 2493 c-24 -4 -27 -10 -33 -55 -9 -68 4 -81 44 -43 23 22 30 38
30 67 0 21 -3 37 -7 37 -5 -1 -20 -4 -34 -6z"/>
<path d="M1160 2480 c0 -23 9 -25 45 -8 35 16 31 28 -10 28 -28 0 -35 -4 -35
-20z"/>
<path d="M922 2478 c-7 -7 -12 -20 -12 -30 0 -27 -27 -22 -34 7 -4 17 -13 25
-27 25 -20 0 -21 -4 -15 -42 4 -24 11 -73 16 -110 9 -76 15 -90 37 -86 17 3
77 212 68 236 -6 15 -18 15 -33 0z"/>
<path d="M3694 2475 c-8 -20 4 -234 14 -251 4 -7 24 -24 45 -38 30 -21 55 -27
120 -32 75 -6 84 -5 101 15 17 19 18 33 14 157 -6 144 -9 154 -57 154 l-23 0
3 -117 4 -118 -63 2 c-35 1 -67 5 -70 8 -4 4 -11 57 -17 118 -10 112 -10 112
-38 115 -18 2 -29 -2 -33 -13z"/>
<path d="M3335 2381 c5 -114 23 -171 54 -171 20 0 21 6 21 118 l0 117 -28 13
c-15 8 -32 16 -39 19 -9 3 -11 -21 -8 -96z"/>
<path d="M710 2451 c0 -10 -5 -78 -11 -151 -12 -136 -6 -180 24 -180 36 0 44
32 51 193 l7 157 -36 0 c-27 0 -35 -4 -35 -19z"/>
<path d="M4182 2443 c26 -28 24 -28 31 -4 4 15 -2 20 -24 23 l-29 5 22 -24z"/>
<path d="M4237 2463 c-14 -23 -9 -62 11 -90 17 -25 22 -45 22 -97 0 -74 3 -72
-90 -58 -40 6 -45 10 -47 36 -3 39 -18 54 -41 40 -13 -9 -16 -22 -13 -60 6
-90 26 -105 152 -112 85 -5 87 -4 104 22 15 22 17 42 13 119 -5 100 -14 125
-61 175 -31 33 -42 38 -50 25z"/>
<path d="M1203 2453 c-15 -3 -23 -12 -23 -24 0 -11 -9 -47 -20 -80 -29 -84
-14 -171 23 -141 21 18 36 79 40 170 2 45 3 81 3 81 -1 -1 -11 -4 -23 -6z"/>
<path d="M2010 2422 c0 -45 0 -45 24 -36 16 6 12 25 -11 59 -12 18 -13 16 -13
-23z"/>
<path d="M3072 2402 l-33 -16 3 -85 3 -86 93 -9 c100 -10 142 1 142 34 0 28
-21 37 -87 42 -35 2 -65 6 -67 9 -3 3 -9 32 -13 66 l-8 60 -33 -15z"/>
<path d="M3485 2388 c20 -71 62 -166 81 -187 19 -21 25 -22 39 -11 17 14 16
22 -22 125 -19 52 -33 74 -52 83 -39 19 -53 15 -46 -10z"/>
<path d="M1053 2379 c-7 -7 -13 -17 -13 -22 0 -5 -11 -22 -25 -39 -21 -25 -25
-40 -25 -93 0 -44 5 -66 15 -75 20 -16 28 -8 49 50 21 56 19 200 -1 179z"/>
<path d="M1781 2091 c-12 -8 -13 -14 -3 -36 13 -28 29 -29 45 -3 21 33 -9 60
-42 39z"/>
<path d="M1882 2088 c-20 -20 -13 -42 23 -64 26 -17 53 -23 123 -25 l89 -4
-81 52 c-82 53 -129 66 -154 41z"/>
<path d="M2967 2053 c-37 -26 -64 -50 -60 -54 10 -8 243 1 243 10 0 3 -10 24
-23 46 -34 60 -72 59 -160 -2z"/>
<path d="M1600 2080 c-13 -8 -12 -14 5 -47 23 -42 34 -48 57 -31 15 12 15 16
1 51 -15 37 -34 46 -63 27z"/>
<path d="M3150 2085 c0 -10 24 -55 30 -55 12 0 30 24 30 42 0 13 -8 18 -30 18
-16 0 -30 -2 -30 -5z"/>
<path d="M3362 2047 c-14 -40 -15 -47 -3 -47 5 0 12 11 15 25 4 14 11 25 16
25 6 0 10 7 10 15 0 28 -26 15 -38 -18z"/>
<path d="M2438 1994 c-31 -16 -33 -22 -18 -44 9 -13 14 -11 35 13 40 45 33 58
-17 31z"/>
<path d="M2130 1622 c0 -11 21 -27 58 -44 31 -15 78 -42 104 -60 84 -59 177
-108 204 -108 25 0 176 79 199 104 6 6 30 22 55 35 55 30 110 71 110 81 0 10
-524 5 -540 -5 -6 -4 -16 -3 -23 2 -7 6 -47 10 -89 11 -67 1 -78 -2 -78 -16z
m440 -31 c0 -7 -32 -11 -93 -11 -68 0 -99 -4 -115 -16 -25 -17 -42 -11 -42 14
0 15 16 17 125 20 86 3 125 1 125 -7z m120 -37 c0 -31 -10 -30 -44 5 l-28 29
23 4 c31 5 49 -9 49 -38z"/>
<path d="M1969 1582 c69 -60 212 -164 274 -198 89 -48 91 14 3 71 -29 18 -97
65 -151 104 -84 60 -105 71 -140 71 l-40 0 54 -48z"/>
<path d="M2935 1582 c-87 -70 -269 -186 -368 -234 -21 -11 -40 -25 -44 -33 -7
-20 -42 -19 -50 1 -13 35 -88 40 -76 6 11 -31 36 -52 74 -63 34 -11 43 -9 101
19 127 63 347 207 433 283 17 15 41 36 55 48 l25 20 -45 1 c-39 0 -53 -6 -105
-48z"/>
</g>
</svg>
